PathFileType	4	(X/Y/Z)	c:\Git\powerlifing_model_clean\simulations\HC835B\Session1\HC835B_OGW_0003\marker_experimental.trc
DataRate	CameraRate	NumFrames	NumMarkers	Units	OrigDataRate	OrigDataStartFrame	OrigNumFrames
240.000000	240.000000	4	38	mm	240.000000	53	428
Frame#	Time	RPSI			LPSI			RASI			LASI			RTH1			RTH2			RTH3			RTH4			RSK1			RSK2			RSK3			RSK4			RCAL1			RCAL2			RCAL3			RST			RPT			RTN			RFMB			RSMB			RVMB			RFMH			RSMH			RVMH			RPM			LTH1			LTH2			LTH3			LTH4			LSK1			LSK2			LSK3			LSK4			LCAL1			LCAL2			LCAL3			LFMH			LVMH			
		X1	Y1	Z1	X2	Y2	Z2	X3	Y3	Z3	X4	Y4	Z4	X5	Y5	Z5	X6	Y6	Z6	X7	Y7	Z7	X8	Y8	Z8	X9	Y9	Z9	X10	Y10	Z10	X11	Y11	Z11	X12	Y12	Z12	X13	Y13	Z13	X14	Y14	Z14	X15	Y15	Z15	X16	Y16	Z16	X17	Y17	Z17	X18	Y18	Z18	X19	Y19	Z19	X20	Y20	Z20	X21	Y21	Z21	X22	Y22	Z22	X23	Y23	Z23	X24	Y24	Z24	X25	Y25	Z25	X26	Y26	Z26	X27	Y27	Z27	X28	Y28	Z28	X29	Y29	Z29	X30	Y30	Z30	X31	Y31	Z31	X32	Y32	Z32	X33	Y33	Z33	X34	Y34	Z34	X35	Y35	Z35	X36	Y36	Z36	X37	Y37	Z37	X38	Y38	Z38	

54	0.2208333333333333	444.1402282714845	1091.235961914063	-2184.053955078125	553.6139526367189	1085.056884765625	-2190.210693359375	395.4769592285157	1062.307006835938	-1966.371704101563	631.5158691406251	1042.10595703125	-1986.38671875	325.7536315917969	791.2600097656252	-1963.488525390625	340.3327331542969	799.0675048828127	-1906.087280273438	344.4633483886719	722.0519409179689	-1918.578369140625	368.2191772460938	729.1537475585939	-1865.39306640625	406.8554077148439	276.9499816894532	-1929.26953125	407.9448547363282	265.7624816894532	-1868.07861328125	415.0232238769532	221.7785797119141	-1910.807006835938	428.6338500976564	212.7122039794922	-1852.794067382813	483.7287597656251	80.7820510864258	-1963.044067382813	514.4923095703126	43.0150260925293	-1952.008544921875	451.2937927246095	43.70829391479493	-1960.207275390625	524.5421752929689	59.25197219848634	-1883.727294921875	424.0957336425782	56.97356414794923	-1902.466064453125	506.9260253906251	81.78919219970705	-1830.627685546875	501.1873474121095	67.78560638427736	-1796.549438476563	453.6965942382814	91.95466613769533	-1791.967529296875	409.5250854492189	34.99589538574219	-1859.474731445313	499.7292785644532	43.23947906494141	-1741.828247070313	444.8635253906251	59.5714797973633	-1732.250854492188	387.9018859863282	32.40040969848634	-1781.056274414063	452.4544677734376	50.92671203613283	-1674.048461914063	710.3258666992189	764.5164794921876	-2084.55908203125	721.1909790039064	757.1209716796876	-2024.7607421875	718.7039794921876	683.0780029296876	-2059.068603515625	716.2365722656251	674.9805297851564	-1998.67626953125	676.8326416015626	400.574188232422	-2319.727783203125	688.1004638671876	349.9446411132813	-2307.21337890625	672.8908081054689	356.0278320312501	-2354.096435546875	667.6690673828126	302.7572326660157	-2335.58740234375	593.9788818359376	327.4463806152344	-2477.793212890625	612.9569702148439	314.5857849121094	-2519.510986328125	557.4689331054689	308.5481872558594	-2502.082275390625	587.8965454101564	105.4718322753907	-2422.493408203125	673.1277465820314	132.4967803955078	-2489.41015625	
55	0.225	443.3282775878907	1092.94970703125	-2177.3720703125	552.8186645507814	1086.905517578125	-2183.62939453125	395.2563476562501	1064.10791015625	-1959.616455078125	631.3564453125001	1044.028564453125	-1979.885864257813	325.5787048339844	792.1973876953127	-1958.431518554688	340.4339599609376	799.5877685546877	-1901.04052734375	344.4761657714844	722.5327148437501	-1914.33935546875	368.5137939453126	729.2643432617189	-1861.189819335938	407.2183227539064	277.3710021972657	-1928.554077148438	407.8550109863282	265.9585571289063	-1867.454345703125	415.5805969238282	221.9900817871094	-1910.497924804688	428.4774169921876	212.593978881836	-1852.404052734375	483.6985473632814	80.93836975097658	-1963.113159179688	514.5217285156251	43.07444763183594	-1952.04443359375	451.3041076660157	43.80620574951173	-1960.232666015625	524.5335083007814	59.2800750732422	-1883.794677734375	424.1458435058595	57.077205657959	-1902.476684570313	507.0230407714845	81.79412078857423	-1830.579345703125	501.2958374023439	67.71591949462892	-1796.5595703125	453.7825012207032	91.94055175781251	-1791.9306640625	409.5737609863282	35.04339218139649	-1859.472290039063	499.7897033691407	43.13425064086915	-1741.781616210938	444.972137451172	59.48802947998048	-1732.22802734375	387.9436340332032	32.4122543334961	-1781.038330078125	452.5314941406251	50.74326705932619	-1673.976440429688	710.0698852539064	765.9427490234376	-2074.668701171875	721.4356079101564	759.4229125976564	-2014.928955078125	718.9348754882814	685.0303955078126	-2048.185302734375	716.7362670898439	677.6345214843751	-1987.536010742188	676.6811523437501	403.222137451172	-2306.0546875	687.9579467773439	352.4160156250001	-2293.48876953125	672.6213989257814	358.6816101074219	-2340.425048828125	667.7219848632814	305.5027770996094	-2321.858154296875	593.4127197265626	329.6303710937501	-2464.984130859375	612.9351806640626	316.3505249023438	-2506.2958984375	557.2940063476564	310.2044982910157	-2489.470458984375	588.0660400390626	108.3043212890625	-2407.039794921875	673.8568725585939	135.0536804199219	-2473.278564453125	
56	0.2291666666666667	442.4624633789064	1094.789672851563	-2170.731689453125	551.9618530273439	1088.851806640625	-2177.0546875	395.0454711914064	1065.8251953125	-1952.984985351563	631.3500976562501	1046.037475585938	-1973.35791015625	325.4222106933594	793.261657714844	-1953.510986328125	340.2095336914063	800.6016845703127	-1895.116333007813	344.3497924804688	723.4254760742189	-1909.720947265625	368.8038024902344	729.4343872070314	-1856.962524414063	407.5120849609376	277.9333190917969	-1927.849853515625	407.8065185546876	265.9363403320313	-1866.89599609375	415.7114562988282	222.2357330322266	-1910.15087890625	428.3575134277345	212.5604705810547	-1851.988891601563	483.7077636718751	80.96691131591798	-1963.136108398438	514.5136718750001	43.15391921997071	-1952.086181640625	451.2806701660157	43.87762832641602	-1960.2578125	524.5382080078126	59.44420242309572	-1883.814331054688	424.1778564453126	57.11191940307619	-1902.476196289063	507.0773315429689	81.81735229492189	-1830.6015625	501.373748779297	67.69795227050783	-1796.565551757813	453.8419189453126	91.86895751953126	-1791.869384765625	409.602264404297	35.08830261230469	-1859.455322265625	499.8365478515626	43.08734130859376	-1741.744140625	445.053680419922	59.38977050781251	-1732.174926757813	387.973358154297	32.45006179809571	-1781.011962890625	452.6294860839845	50.58964157104494	-1673.938354492188	710.0751953125001	767.6174316406251	-2064.76171875	721.7103271484376	761.8093872070314	-2004.9775390625	719.1264038085939	687.0670166015626	-2037.283935546875	717.2891845703126	680.4272460937501	-1976.508178710938	676.4673461914064	405.6592102050782	-2292.288330078125	687.8745727539064	354.9150390625001	-2279.780029296875	672.3872070312501	361.1288452148438	-2326.64990234375	667.4728393554689	307.9561767578126	-2308.01611328125	592.9617309570314	331.5092468261719	-2452.050048828125	613.0729370117189	317.7261962890626	-2492.955810546875	557.2590332031251	311.5875244140626	-2476.6953125	588.0515136718751	110.8721771240235	-2391.260009765625	674.5037231445314	137.1577453613282	-2456.823486328125	
57	0.2333333333333333	441.5775756835939	1096.743041992188	-2164.096435546875	551.1384887695314	1090.877197265625	-2170.491455078125	394.8589782714845	1067.425537109375	-1946.470703125	631.3903808593751	1048.23583984375	-1966.549438476563	325.1864013671876	794.463562011719	-1948.390625	340.3827819824219	801.091491699219	-1890.348022460938	344.3311157226563	724.0588989257814	-1905.532592773438	369.1210937500001	729.6910400390626	-1852.81787109375	408.1659545898439	278.2793884277344	-1927.229370117188	407.6454162597657	265.9644775390626	-1866.322021484375	415.7359313964845	222.493637084961	-1909.7431640625	428.2139282226564	212.5307617187501	-1851.623168945313	483.6594238281251	81.04580688476564	-1963.171264648438	514.4685668945314	43.29434204101563	-1952.129516601563	451.2408142089845	43.93867874145509	-1960.268188476563	524.5057983398439	59.65853118896486	-1883.912963867188	424.1573486328126	57.200496673584	-1902.484497070313	507.0721435546876	81.87892150878908	-1830.580688476563	501.4006958007814	67.73513031005861	-1796.57568359375	453.8612060546876	91.87174224853517	-1791.829345703125	409.6050720214845	35.1475944519043	-1859.442504882813	499.9116821289064	43.06987762451173	-1741.738525390625	445.1159667968751	59.2714080810547	-1732.165649414063	388.0072326660157	32.45610427856446	-1781.031372070313	452.6844482421876	50.47136688232423	-1673.911743164063	709.9468994140626	769.216979980469	-2054.799560546875	721.8156127929689	764.3967285156251	-1995.106323242188	719.3346557617189	689.1237792968751	-2026.333129882813	717.7636718750001	683.2480468750001	-1965.458862304688	676.1177978515626	407.9594726562501	-2278.439697265625	687.6821289062501	357.2890014648438	-2265.8857421875	672.0864868164064	363.3527221679688	-2312.766845703125	667.0576171875001	310.1840515136719	-2294.0087890625	592.6635131835939	333.0119018554688	-2438.925537109375	613.2727661132814	318.7713012695313	-2479.43896484375	557.2650756835939	312.5986328125001	-2463.679931640625	588.0363159179689	113.2003860473633	-2375.168212890625	675.0831909179689	138.9899139404297	-2440.270751953125	
